<?xml version="1.0" encoding="UTF-8" standalone="no"?>
<!DOCTYPE svg PUBLIC "-//W3C//DTD SVG 1.1//EN" "http://www.w3.org/Graphics/SVG/1.1/DTD/svg11.dtd">
<svg width="100%" height="100%" viewBox="0 0 48 48" version="1.1" xmlns="http://www.w3.org/2000/svg" xmlns:xlink="http://www.w3.org/1999/xlink" xml:space="preserve" xmlns:serif="http://www.serif.com/" style="fill-rule:evenodd;clip-rule:evenodd;stroke-linejoin:round;stroke-miterlimit:2;">
    <path d="M34.141,29.804L39.097,32.627L35.936,36.756L31.231,40.129L25.69,41.05L20.789,40.871L17.315,39.604L34.141,29.804Z" style="fill:rgb(221,153,180);"/>
    <path d="M13.898,10.1C17.352,7.853 20.716,6.805 24,6.831L24,24L13.959,29.804L13.898,10.1Z" style="fill:rgb(221,153,180);"/>
    <path d="M41.026,21.72L24.482,12.02L24,24L38.965,32.627L41.058,27.376L41.026,21.72Z" style="fill:rgb(190,206,153);"/>
    <path d="M9.136,32.627L24,24L34.141,29.804L17.895,40.129L12.407,36.884L9.136,32.627Z" style="fill:rgb(17,170,181);"/>
    <path d="M13.898,10.399L13.898,29.804L9.136,32.627L7.416,28.454L6.793,23.015L7.788,18.317L9.838,14.071L13.898,10.399Z" style="fill:rgb(190,206,153);"/>
    <path d="M41.058,21.513L24,12.02L24,6.83L28.206,7.268L32.529,8.6L35.041,10.399L37.722,13.882L39.604,16.845L41.058,19.801L41.058,21.513Z" style="fill:rgb(17,170,181);"/>
    <path d="M40.1,20.5C39.3,16.867 37.5,13.842 34.7,11.425C31.9,9.008 28.583,7.717 24.75,7.55L24.75,11.45L40.1,20.5ZM14.45,28.6L23.25,23.5L23.25,7.55C21.65,7.717 20.108,8.025 18.625,8.475C17.142,8.925 15.75,9.617 14.45,10.55L14.45,28.6ZM9.35,31.55L12.95,29.5L12.95,11.75C11.15,13.283 9.8,15.125 8.9,17.275C8,19.425 7.55,21.667 7.55,24C7.55,25.333 7.692,26.633 7.975,27.9C8.258,29.167 8.717,30.383 9.35,31.55ZM17.1,39.05L32.85,29.95L24,24.75L10.1,32.85C10.933,34.217 11.942,35.442 13.125,36.525C14.308,37.608 15.633,38.45 17.1,39.05ZM24,40.45C26.833,40.45 29.475,39.783 31.925,38.45C34.375,37.117 36.367,35.267 37.9,32.9L34.35,30.8L19,39.7C19.767,40 20.583,40.2 21.45,40.3C22.317,40.4 23.167,40.45 24,40.45ZM38.7,31.5C39.4,30.133 39.9,28.692 40.2,27.175C40.5,25.658 40.567,24.1 40.4,22.5L24.75,13.3L24.75,23.5L38.7,31.5ZM24,42C21.5,42 19.158,41.525 16.975,40.575C14.792,39.625 12.892,38.342 11.275,36.725C9.658,35.108 8.375,33.208 7.425,31.025C6.475,28.842 6,26.5 6,24C6,21.5 6.475,19.158 7.425,16.975C8.375,14.792 9.658,12.892 11.275,11.275C12.892,9.658 14.792,8.375 16.975,7.425C19.158,6.475 21.5,6 24,6C26.5,6 28.842,6.475 31.025,7.425C33.208,8.375 35.108,9.658 36.725,11.275C38.342,12.892 39.625,14.792 40.575,16.975C41.525,19.158 42,21.5 42,24C42,26.5 41.525,28.842 40.575,31.025C39.625,33.208 38.342,35.108 36.725,36.725C35.108,38.342 33.208,39.625 31.025,40.575C28.842,41.525 26.5,42 24,42Z" style="fill-rule:nonzero;"/>
</svg>
